<svg width="32" height="32" viewBox="0 0 32 32" fill="none" xmlns="http://www.w3.org/2000/svg">
<circle cx="15.9996" cy="15.9999" r="16" fill="#156CF7"/>
<path fill-rule="evenodd" clip-rule="evenodd" d="M8.6069 16.8287C8.6069 16.8085 8.60827 16.7885 8.6085 16.7684H6.61055C6.61032 16.7885 6.60895 16.8085 6.60895 16.8287C6.60895 18.7971 7.24893 20.6212 8.33324 22.1171C8.61768 21.8883 8.98126 21.7511 9.37741 21.7511C10.289 21.7511 11.0278 22.4769 11.0278 23.3725C11.0278 23.7525 10.8939 24.1011 10.6711 24.3775C12.128 25.3621 13.8819 25.9548 15.7727 25.9988V24.0454C11.8016 23.9276 8.6069 20.7369 8.6069 16.8287ZM10.2729 22.3994C9.75612 21.9172 8.95006 21.9482 8.47294 22.4682C7.99581 22.9882 8.02793 23.8009 8.54473 24.2829C9.06154 24.7651 9.8676 24.7341 10.3447 24.2141C10.8218 23.6941 10.7897 22.8816 10.2729 22.3994ZM15.9993 9.60684C19.9314 9.60684 23.1557 12.6222 23.3784 16.4106H25.3787C25.1809 12.1286 21.9647 8.60301 17.7644 7.81897C17.6844 8.62524 16.9065 9.25848 15.9571 9.25848C15.0134 9.25848 14.2386 8.63303 14.1507 7.83364C9.99101 8.64816 6.81631 12.1567 6.61996 16.4104H8.6202C8.84294 12.6222 12.067 9.60684 15.9993 9.60684ZM22.6217 21.8283C23.0032 21.8283 23.3539 21.9516 23.6365 22.1567C24.7385 20.6535 25.3897 18.8145 25.3897 16.8287C25.3897 16.8085 25.3883 16.7885 25.3881 16.7684H23.3901C23.3904 16.7885 23.3917 16.8085 23.3917 16.8287C23.3917 20.7644 20.1519 23.9728 16.1413 24.047V25.9999C18.0399 25.9722 19.8041 25.3921 21.2715 24.4158C21.0614 24.1456 20.9357 23.8114 20.9357 23.4482C20.9355 22.5537 21.6904 21.8283 22.6217 21.8283ZM21.6163 22.5466C21.1389 23.0666 21.1713 23.8793 21.6881 24.3612C22.2049 24.8434 23.011 24.8125 23.4881 24.2925C23.9652 23.7725 23.9331 22.9598 23.4163 22.4778C22.8995 21.9956 22.0936 22.0263 21.6163 22.5466ZM17.0579 8.47215C17.6195 7.87604 17.5816 6.94487 16.9735 6.3923C16.3654 5.83974 15.4171 5.87503 14.8558 6.47114C14.2943 7.06725 14.3321 7.99842 14.9402 8.55099C15.5483 9.10355 16.4964 9.06826 17.0579 8.47215Z" fill="white"/>
<path fill-rule="evenodd" clip-rule="evenodd" d="M18.2136 21.7925C18.2673 21.8904 18.3895 21.9262 18.4868 21.8723C18.5841 21.8184 18.6194 21.6951 18.5657 21.5973L16.6868 17.5877C16.9313 17.4302 17.124 17.1912 17.2077 16.8935C17.2568 16.7191 17.2612 16.544 17.2325 16.3778L19.211 14.4231C19.3007 14.3347 19.3612 14.2288 19.3926 14.1165C19.4569 13.8887 19.4002 13.6366 19.2217 13.4599C18.9559 13.197 18.5196 13.2013 18.2473 13.4702L16.2668 15.427C15.9074 15.3683 15.3486 15.6337 15.2096 15.9165L11.2822 14.8198C10.9159 14.727 10.4902 14.6981 10.4053 15.1586C10.3814 15.2878 10.4617 15.5892 10.8283 15.6827L14.9157 16.9162C15.0306 17.3145 15.3275 17.6516 15.7209 17.752C15.923 17.8036 16.126 17.7951 16.3173 17.7468L18.2136 21.7925ZM15.9069 17.0923C15.6328 17.0224 15.4718 16.7432 15.5486 16.4707C15.6252 16.1982 15.9113 16.033 16.1854 16.1029C16.4595 16.1728 16.6205 16.4519 16.5437 16.7244C16.4669 16.9974 16.181 17.1622 15.9069 17.0923Z" fill="white"/>
</svg>
